<svg xmlns="http://www.w3.org/2000/svg" xmlns:xlink="http://www.w3.org/1999/xlink" width="230" height="200" viewBox="0 0 230 200"><defs><style>.a{fill:none;}.b{fill:#f4f7fa;}.c{clip-path:url(#a);}.d{fill:url(#b);}.e{opacity:0.5;}.e,.q{mix-blend-mode:soft-light;}.ab,.e,.o,.q,.w{isolation:isolate;}.f{fill:#beb8f2;}.g{fill:url(#c);}.h{clip-path:url(#d);}.i{fill:#fcfdfe;}.j{fill:url(#e);}.k{clip-path:url(#f);}.l{fill:#97a6b7;}.m{fill:url(#g);}.n,.q{fill:#fff;}.o,.r{fill:#d8dee8;}.ab,.o,.w{opacity:0.3;mix-blend-mode:multiply;}.p{fill:url(#h);}.q{opacity:0.6;}.s{opacity:0.75;}.t{fill:url(#i);}.u{fill:url(#j);}.v{fill:url(#k);}.x{fill:url(#l);}.y{fill:url(#m);}.z{fill:url(#n);}.aa{fill:url(#o);}.ab{fill:url(#p);}.ac{fill:url(#q);}.ad{fill:url(#r);}.ae{fill:url(#s);}.af{fill:url(#t);}.ag{fill:url(#u);}.ah{fill:url(#v);}.ai{fill:url(#w);}.aj{fill:url(#x);}.ak{fill:url(#y);}.al{fill:url(#z);}.am{fill:url(#aa);}.an{fill:url(#ab);}.ao{fill:#26264f;}.ap{fill:url(#ac);}.aq{fill:#9b305e;}</style><clipPath id="a"><path class="a" d="M12.68,31.786c4.348-8.5,10.806-18.6,16.526-8.446s21.512.493,26.556-14.248C60.7-5.334,89.188-4.885,81.372,27.319,76.7,46.55,57.439,47.41,47.814,50.157S40.2,67.622,27.272,64.954C16.231,62.675,7.216,56.03,1.388,63.562S9.8,37.423,12.68,31.786Z"/></clipPath><linearGradient id="b" x1="2.914" y1="1.416" x2="2.493" y2="2.959" gradientUnits="objectBoundingBox"><stop offset="0.004" stop-color="#e38ddd"/><stop offset="1" stop-color="#9571f6"/></linearGradient><linearGradient id="c" x1="-1.803" y1="1.719" x2="-1.381" y2="4.561" gradientUnits="objectBoundingBox"><stop offset="0" stop-color="#ffc444"/><stop offset="0.996" stop-color="#f36f56"/></linearGradient><clipPath id="d"><path class="a" d="M1.649,7.2,0,21.4s7.741,6.891,11.877,3.037,12.07,1.39,16.616,3.65c12.333,6.132,16.617-9.263,33.086-2.761,4.38,1.729,12.156,6.617,17.1,3.99,5.637-2.993,2.953-7.87,7.346-9.491,6.865-2.533,11.44-9.242,7.713-15.8-3.679-6.469-16.119-5.3-29.378,4.588-10.232,5.96-12.391,5.262-17.276,2.539-3.422-1.907-11.437-9.343-17.11-5.523s-11.194,6.271-14.512,2.62C10.415,2.7,1.649,7.2,1.649,7.2Z"/></clipPath><linearGradient id="e" x1="1.065" y1="1.382" x2="1.647" y2="2.777" gradientUnits="objectBoundingBox"><stop offset="0" stop-color="#ff9085"/><stop offset="1" stop-color="#fb6fbb"/></linearGradient><clipPath id="f"><path class="a" d="M0,59.04c2.733,1.9,7.912,4.667,10.142.273,3.1-6.109,13.9-4,17.357-1.419,4.283,3.2,14.4,10.417,19.334,1.052,4.106-7.8,5.259-13.7,15.468-12.161s17.65-2.979,18.948-12.818c1.366-10.354,15.83-16.038,13.177-25.314C89.8-7.512,64.974,1.026,55.059,17.416S0,59.04,0,59.04Z"/></clipPath><linearGradient id="g" x1="0.5" y1="0.245" x2="0.5" y2="0.788" gradientUnits="objectBoundingBox"><stop offset="0.494" stop-color="#ebeff2"/><stop offset="1" stop-color="#fff"/></linearGradient><linearGradient id="h" x1="0.572" y1="0.036" x2="0.198" y2="2.236" xlink:href="#c"/><linearGradient id="i" x1="0.25" y1="0.077" x2="0.932" y2="1.674" gradientUnits="objectBoundingBox"><stop offset="0" stop-color="#311944"/><stop offset="1" stop-color="#893976"/></linearGradient><linearGradient id="j" x1="-1.665" y1="0.083" x2="-0.958" y2="1.626" xlink:href="#c"/><linearGradient id="k" x1="0" y1="0.5" x2="1" y2="0.5" xlink:href="#e"/><linearGradient id="l" x1="-3.343" y1="-0.016" x2="-2.3" y2="1.988" xlink:href="#e"/><linearGradient id="m" x1="0.307" y1="0.027" x2="1.083" y2="1.928" xlink:href="#i"/><linearGradient id="n" x1="-1.51" y1="0.087" x2="-0.836" y2="1.613" xlink:href="#c"/><linearGradient id="o" x1="0.4" y1="0.361" x2="2.197" y2="2.876" xlink:href="#b"/><linearGradient id="p" x1="0.333" y1="0.263" x2="1.021" y2="1.677" xlink:href="#b"/><linearGradient id="q" x1="-105.452" y1="0.115" x2="-104.414" y2="1.288" xlink:href="#i"/><linearGradient id="r" x1="-14.227" y1="0.042" x2="-13.647" y2="1.369" xlink:href="#b"/><linearGradient id="s" x1="-12.476" y1="0.95" x2="-12.206" y2="-0.004" xlink:href="#b"/><linearGradient id="t" x1="-113.057" y1="-17.061" x2="-112.006" y2="-15.612" gradientUnits="objectBoundingBox"><stop offset="0" stop-color="#444b8c"/><stop offset="0.996" stop-color="#26264f"/></linearGradient><linearGradient id="u" x1="-170.109" y1="-6.628" x2="-170.109" y2="-7.98" xlink:href="#c"/><linearGradient id="v" x1="-143.708" y1="-21.52" x2="-142.376" y2="-19.731" xlink:href="#t"/><linearGradient id="w" x1="-110.426" y1="-0.515" x2="-109.332" y2="0.793" xlink:href="#t"/><linearGradient id="x" x1="-205.381" y1="1.222" x2="-205.381" y2="-0.193" xlink:href="#c"/><linearGradient id="y" x1="4.044" y1="1.09" x2="3.387" y2="-0.252" xlink:href="#t"/><linearGradient id="z" x1="-18.717" y1="-0.664" x2="-17.903" y2="0.761" xlink:href="#b"/><linearGradient id="aa" x1="-137.746" y1="-1.298" x2="-136.386" y2="0.479" xlink:href="#t"/><linearGradient id="ab" x1="-19.686" y1="7.239" x2="-18.423" y2="8.888" xlink:href="#i"/><linearGradient id="ac" x1="-216.397" y1="54.868" x2="-202.078" y2="68.658" xlink:href="#i"/></defs><g transform="translate(0 -1)"><path class="b" d="M583.708,465.506c-51.2-1.555-95.548,36.657-102.249,86.8-7.326,54.82,32.995,104.146,82.608,112.046,61.711,9.826,121.566-47.021,116.192-108.692C676.211,509.193,635.753,467.087,583.708,465.506Z" transform="translate(-465.454 -464.46)"/><g transform="translate(0 191.357) rotate(-90)"><g class="c"><path class="d" d="M63.129,9.091C58.086,23.833,44,33.57,36.574,24.586c-6.562-7.94-12.178-1.3-16.526,7.2-2.576,5.037-6.655,16.885-18.656,14.582a1.865,1.865,0,0,1-.067.611C1,54.648.4,62.3,0,69.966c3.368-.905,6.241-3.154,8.756-6.4,5.829-7.532,14.844-.887,25.884,1.392,12.925,2.668,10.916-12.05,20.542-14.8S84.073,46.55,88.74,27.319C96.556-4.885,68.065-5.334,63.129,9.091Z" transform="translate(-7.368 0)"/><g class="e" transform="translate(-6.894 -4.408)"><path class="f" d="M79.361,0c-.04,31.48-27.124,46.655-49.838,53.841a178.818,178.818,0,0,1-29.5,6.424q-.012.2-.024.409a179.342,179.342,0,0,0,29.637-6.447c14.526-4.595,26.106-10.837,34.418-18.552C74.461,26.017,79.746,14.014,79.764,0Z" transform="translate(0.353)"/><path class="f" d="M.027,9.958,0,9.556C13.374,8.653,30.962.086,31.138,0l.178.361C31.139.448,13.48,9.05.027,9.958Z" transform="translate(59.858 29.565)"/><path class="f" d="M.736,26.9C6.452,11.979.065.313,0,.2L.351,0a33.966,33.966,0,0,1,.761,27.039Z" transform="translate(65.906 6.003)"/><path class="f" d="M0,34.591C17.786,26.56,17.449.32,17.424.065l.4-.065c.048.248.288,26.856-17.656,34.958Z" transform="translate(13.48 23.472)"/><path class="f" d="M0,.4.006,0c12.452.172,23.2,11.561,23.309,11.676l-.295.275C22.914,11.837,12.278.572,0,.4Z" transform="translate(21.403 56.252)"/><path class="f" d="M6.3,5.239A70.239,70.239,0,0,0,.03,0L0,.474A71.29,71.29,0,0,1,6.022,5.535a9.445,9.445,0,0,0,.825.728l.206-.346C6.986,5.875,6.666,5.58,6.3,5.239Z" transform="translate(0 65.838)"/></g></g><g transform="translate(36.282 36.579)"><path class="g" d="M15.257,8.256c-2.9-3.194-7.079-2.9-10.067-2.212a4.379,4.379,0,0,1-.558.935C2.542,10.217,2.34,12.045.783,15.562a20.136,20.136,0,0,0-.7,4.317L0,21.817s7.532,6.477,11.668,2.623,12.07,1.39,16.616,3.65c2.791,1.388,4.512,1.129,5.62,1.474,11.724,3.655,13.815,8.4,18.358,7.243,5.015-1.273,3.9-7.414,9.283-9.088,6.077-1.889,11.578,4.673,16.929,1.6a8.082,8.082,0,0,0,2.7-2.22c2.1-2.781,1.234-6.01,4.65-7.27,6.865-2.533,11.44-9.242,7.713-15.8-3.679-6.469-16.118-5.3-29.378,4.588-10.232,5.96-12.391,5.261-17.276,2.539-3.422-1.907-11.436-9.343-17.11-5.523S18.576,11.907,15.257,8.256Z" transform="translate(0.209 0)"/><g class="h"><g class="e" transform="translate(1.377 -0.627)"><path class="i" d="M.066,12.565,0,12.841c1.519.377,3.056.737,4.568,1.07a152.515,152.515,0,0,0,32.787,3.705A124.557,124.557,0,0,0,63.329,14.93,107.185,107.185,0,0,0,82.373,8.99a88.76,88.76,0,0,0,11.72-5.946c.623-.38,1.242-.8,1.841-1.216.8-.548,1.622-1.114,2.464-1.577L98.283,0C97.429.469,96.6,1.04,95.8,1.591c-.6.409-1.211.832-1.828,1.208A88.49,88.49,0,0,1,82.283,8.727a106.925,106.925,0,0,1-19,5.926,124.285,124.285,0,0,1-25.922,2.681,152.24,152.24,0,0,1-32.735-3.7C3.117,13.3,1.583,12.942.066,12.565Z" transform="translate(0.1 1.69)"/><path class="i" d="M0,.074.016.356C11.3-.724,27.322,10.491,27.483,10.6l.148-.238C27.47,10.253,11.369-1.014,0,.074Z" transform="translate(53.233 17.984)"/><path class="i" d="M.014,11.576,0,11.859C7.721,12.087,18.036.309,18.139.19L17.948,0C17.846.118,7.615,11.8.014,11.576Z" transform="translate(21.494 6.535)"/><path class="i" d="M.06,0,0,.277C4.912,1.383,10.99,5.728,17.115,12.512c.308.341.308.341.356.353l.064-.276-.032.138.077-.116c-.023-.02-.139-.149-.274-.3C11.147,5.489,5.022,1.117.06,0Z" transform="translate(17.088 17.575)"/><path class="i" d="M0,7.8l.015.282C5.565,7.577,10.359.231,10.406.157L10.192,0C10.144.073,5.423,7.307,0,7.8Z" transform="translate(2.948 7.099)"/><path class="i" d="M0,.238c3.7,2.611,6.8,6.471,9.462,11.8l.233-.139C7.008,6.528,3.885,2.637.149,0Z" transform="translate(0 14.412)"/><path class="i" d="M0,.576l.031.28a69.008,69.008,0,0,1,15.2-.275c.536.042.725.056.791.048L16,.348c-.051,0-.357-.019-.745-.05A69.241,69.241,0,0,0,0,.576Z" transform="translate(78.843 11.26)"/><path class="i" d="M0,15.03l.107.256C5.5,12.564,9.72.6,9.9.093L9.65,0C9.607.123,5.3,12.359,0,15.03Z" transform="translate(68.86)"/></g></g></g><g transform="translate(29.206 3.419)"><path class="j" d="M92.151,8.652C87.529-7.512,62.7,1.026,52.785,17.416c-2.876,4.755-5.257,7.164-7.388,8.138a50.494,50.494,0,0,0-13.788,7.826c-8.364,6.732-9.9,12.606-17.75,16.939a30.259,30.259,0,0,1-13.141,3.6A8.459,8.459,0,0,1,.66,56.162Q.33,58.235,0,60.309c2.852,1.785,5.871,2.938,7.867-1,3.1-6.109,13.9-4,17.356-1.419,4.283,3.2,14.4,10.417,19.334,1.052,4.107-7.8,5.259-13.7,15.468-12.161s17.649-2.979,18.948-12.818C80.34,23.612,94.8,17.928,92.151,8.652Z" transform="translate(2.274 0)"/><g class="k"><g class="e" transform="translate(24.725 -4.31)"><path class="i" d="M26.427,0a111.168,111.168,0,0,1-24.7,8.82Q.868,9.269,0,9.7A111.485,111.485,0,0,0,27.347.084Q26.887.034,26.427,0Z" transform="translate(1.167 40.806)"/><path class="i" d="M35.589,0A112.507,112.507,0,0,1,0,31.617c.095.1.192.19.286.287l.067.068A112.975,112.975,0,0,0,35.957.3Z" transform="translate(33.147 6.245)"/><path class="i" d="M.691,0C.461.111.23.22,0,.33,12.618,3.407,20.222,16.845,20.3,16.983l.4-.253C20.623,16.593,13.155,3.389.691,0Z" transform="translate(0 50.737)"/><path class="i" d="M.472,1.053c.164-.57.25-.9.257-.928L.28,0C.273.029.179.391,0,1.01.157,1.023.315,1.037.472,1.053Z" transform="translate(6.034 22.593)"/><path class="i" d="M0,.012C.131.155.276.317.426.493,10.249.36,21.155,8.2,21.276,8.285l.266-.406C21.417,7.788,10.09-.352,0,.012Z" transform="translate(33.973 38.705)"/><path class="i" d="M0,26.876l.339.333C8.7,17.672,8.454.176,8.45,0L7.985.014C7.989.188,8.228,17.488,0,26.876Z" transform="translate(49.267)"/></g></g></g></g><g transform="translate(53.822 20.616)"><path class="b" d="M472.244,402.77c-5.917,8.658,1.021,22.694-7.759,29.206-8.547,6.338-19.046-4.051-27.1,1.4-11.949,8.094-9.767,45.129,7.7,68.14,5.254,6.92,9.643,9.613,11.588,17.439,4.175,16.805-10.5,26.8-7.705,35.113,6.287,18.714,102.973,34.418,141.767-21.825,18.119-26.268,20.83-64.2,4.641-93.008C566.126,387.182,485.521,383.343,472.244,402.77Z" transform="translate(-429.892 -391.263)"/><g transform="translate(0.86 4.864)"><g transform="translate(65.043 126.594)"><path class="l" d="M1542.862,2539.579a7.3,7.3,0,0,1-4.837-5.493l-3.6-17.795-30.756,1.092-3.785,18.538c-.53,2.6,1.592,5.2,4.036,6.157l12.868,5.035a16.726,16.726,0,0,0,7.523,1.091l27.194-2.326a1.687,1.687,0,0,0,1.525-1.495c.093-.8.649-1.7-.108-1.953Z" transform="translate(-1499.806 -2515.501)"/><path class="m" d="M1558.965,2526.469a7.233,7.233,0,0,1-4.833-5.424l-3.592-17.571-30.006,1.08-3.781,18.305a5.356,5.356,0,0,0,3.313,6.079l12.855,4.971a16.888,16.888,0,0,0,7.516,1.077l27.167-2.3a1.676,1.676,0,0,0,.381-3.263Z" transform="translate(-1515.604 -2503.474)"/></g><g transform="translate(0 26.395)"><path class="l" d="M449.91,989.59c-3.335.2-6.064-1.965-6.064-4.824V881.7c0-2.859,2.729-5.068,6.064-4.923l4.523,3.035,149.722,3.648a4.662,4.662,0,0,1,4.431,4.6V975.72a4.757,4.757,0,0,1-4.431,4.675Z" transform="translate(-443.846 -876.775)"/><path class="n" d="M472.415,989.59c-3.335.2-6.064-1.965-6.064-4.824V881.7c0-2.859,2.729-5.068,6.064-4.923l154.244,6.683a4.662,4.662,0,0,1,4.431,4.6V975.72a4.757,4.757,0,0,1-4.431,4.675Z" transform="translate(-464.965 -876.775)"/><path class="o" d="M669.791,922.155,515.547,915.81a2.884,2.884,0,0,0-3.233,2.632v102.8a2.829,2.829,0,0,0,3.233,2.579l154.244-8.857a2.539,2.539,0,0,0,2.374-2.5V924.615A2.489,2.489,0,0,0,669.791,922.155Z" transform="translate(-508.097 -913.402)"/><path class="p" d="M545.608,1040.7a1.114,1.114,0,0,1-1.26-1.015V944.154a1.127,1.127,0,0,1,1.26-1.027l154.244,6.109a.972.972,0,0,1,.928.96V1032.1a.984.984,0,0,1-.928.969Z" transform="translate(-538.158 -939.038)"/><path class="q" d="M610.557,974.015c-12.976-8.027-3.913-30.85-18.486-42.317-14.692-11.561-35.366,2.618-45.658-9.354-7.663-8.915,1.3-19.679-6.013-28.063-11.475-13.148-40.848,4.935-54.344-8.018a18.148,18.148,0,0,1-4.95-9.105l-8.691-.377c-3.335-.145-6.064,2.064-6.064,4.923V984.766c0,2.859,2.729,5.023,6.064,4.824l154.244-9.2a4.757,4.757,0,0,0,4.431-4.675v-1.558C620.849,977.637,614.588,976.509,610.557,974.015Z" transform="translate(-464.965 -876.775)"/></g><path class="r" d="M1193.209,580.537l-94.951,4.536V461.994a2.864,2.864,0,0,1,3.031-2.859l89.224,5.227a2.864,2.864,0,0,1,2.7,2.859Z" transform="translate(-1057.949 -459.131)"/><g class="s" transform="translate(48.88 12.769)"><path class="n" d="M1250.333,678.721l-12.924-.491v-11.8l12.924.62Z" transform="translate(-1237.409 -666.426)"/><path class="n" d="M1527.055,685.254l-30.891-1.349v-5.057l30.891,1.483Z" transform="translate(-1480.225 -678.084)"/><path class="n" d="M1518.14,791.7l-21.976-.835v-5.057l21.976.93Z" transform="translate(-1480.225 -778.453)"/><path class="n" d="M1316.434,1634.757l-79.025.459v-3.727l79.025-.209Z" transform="translate(-1237.409 -1571.849)"/><path class="n" d="M1316.434,1721.452l-79.025.844v-3.727l79.025-.594Z" transform="translate(-1237.409 -1653.204)"/><path class="n" d="M1316.434,1808.146l-79.025,1.228v-3.727l79.025-.978Z" transform="translate(-1237.409 -1734.558)"/><path class="n" d="M1316.434,1894.84l-79.025,1.612v-3.727l79.025-1.362Z" transform="translate(-1237.409 -1815.912)"/><path class="n" d="M1237.409,916.072v40.754l79.025.026V918.834Zm49.024,19.993-3.41,3.069a.48.48,0,0,0-.155.445l.807,4.434a.517.517,0,0,1-.635.574.561.561,0,0,1-.354-.053l-4.246-2.145a.575.575,0,0,0-.146-.05.565.565,0,0,0-.146.046l-4.28,2.05a.569.569,0,0,1-.36.045.537.537,0,0,1-.647-.594l.821-4.451a.5.5,0,0,0-.157-.453l-3.488-3.225a.5.5,0,0,1,.3-.866l4.813-.556a.53.53,0,0,0,.41-.27l2.138-4a.538.538,0,0,1,.592-.258.563.563,0,0,1,.592.286l2.125,4.083a.552.552,0,0,0,.406.285l4.72.738A.5.5,0,0,1,1286.433,936.065Z" transform="translate(-1237.409 -900.695)"/></g></g><g transform="translate(114.271 18.102)"><path class="t" d="M2344.611,704.63c0-.049,0-.1-.005-.146q-.008-.224-.02-.447c0-.042-.005-.084-.008-.126q-.015-.26-.038-.518c0-.011,0-.021,0-.032a21.718,21.718,0,0,0-5.46-12.512l-.01.028c-5.055-5.754-13.2-9.057-22.519-9.059-16.59,0-30.619,11.246-30.619,25.643a21.749,21.749,0,0,0,6.728,15.654,29.716,29.716,0,0,1-7.6,7.9c8.751,4.739,15.521-.717,18.027-2.892,1.515.544,3.01,1.346,4.567,2a2.585,2.585,0,0,1,3.091-1.569,9.807,9.807,0,0,0,1.338.406c.233.053.467.093.7.137l.138.026.125.013c.935.1,1.876.174,2.814.247a60.166,60.166,0,0,0,6.241.142,2.334,2.334,0,0,1,1.387.411,33.5,33.5,0,0,0,4.778-1.768q.623-.286,1.228-.6,1.21-.619,2.346-1.327a30.757,30.757,0,0,0,3.722-2.72q.989-.844,1.886-1.76.672-.686,1.29-1.408.206-.241.405-.485.6-.733,1.138-1.5a25.371,25.371,0,0,0,1.627-2.635q.29-.543.552-1.1.131-.277.254-.557.246-.559.463-1.129.108-.285.209-.572.2-.574.37-1.158a21.9,21.9,0,0,0,.547-2.366q.1-.6.174-1.2t.106-1.217q.036-.611.035-1.227C2344.62,705.011,2344.616,704.82,2344.611,704.63Z" transform="translate(-2285.061 -681.339)"/><g transform="translate(0.875 0)"><path class="u" d="M2313.365,700.1c0,14.4,14.09,24.981,30.681,23.7,15.777-1.217,28.009-12.815,28.009-25.959s-12.233-23.8-28.009-23.8C2327.455,674.038,2313.365,685.706,2313.365,700.1Z" transform="translate(-2312.497 -674.041)"/><path class="v" d="M0,49.329a29.791,29.791,0,0,0,7.552-7.82,21.716,21.716,0,0,1-6.52-15.447C1.032,11.664,15.123,0,31.712,0c15.777,0,28.01,10.661,28.01,23.8S47.489,48.545,31.712,49.762a33.229,33.229,0,0,1-14.167-1.916,15.1,15.1,0,0,1-9.624,3.648A16.508,16.508,0,0,1,0,49.329Z" transform="translate(0 0.282)"/><g class="w" transform="translate(20.862 9.449)"><path class="x" d="M2641.459,861.907c3.592-7.631-.04-14.374,4.808-19.359s11.048-.753,17.585-4.831c2.491-1.555,5.238-4.447,7.264-10.269a21.584,21.584,0,0,1,5.541,14.355c0,13.143-12.233,24.742-28.009,25.959a33.741,33.741,0,0,1-10.687-.855A18.386,18.386,0,0,0,2641.459,861.907Z" transform="translate(-2637.962 -827.448)"/></g><g transform="translate(28.032 13.282)"><path class="n" d="M3184.934,1328.117l-1.921-.046a1.064,1.064,0,0,1-1.006-1.01l-.7-13.536a.878.878,0,0,1,.277-.7.922.922,0,0,1,.734-.23l3.309.23a1.011,1.011,0,0,1,.716.321,1.023,1.023,0,0,1,.269.738l-.684,13.289A.979.979,0,0,1,3184.934,1328.117Z" transform="translate(-3181.247 -1312.594)"/><path class="n" d="M3181.28,1561.164a2.745,2.745,0,0,1,2.022-.666,2.857,2.857,0,0,1,2.037.707,2.677,2.677,0,0,1,.694,2,2.62,2.62,0,0,1-.71,1.962,2.767,2.767,0,0,1-2.022.7,2.734,2.734,0,0,1-2.015-.722,2.668,2.668,0,0,1-.73-1.981A2.629,2.629,0,0,1,3181.28,1561.164Z" transform="translate(-3180.558 -1542.336)"/></g></g></g><g transform="translate(102.5 0)"><path class="y" d="M2132.476,396.624c0-.034,0-.068,0-.1,0-.092-.008-.184-.012-.275,0-.033,0-.066-.006-.1q-.01-.15-.023-.3c0-.02,0-.041-.005-.061a14.177,14.177,0,0,0-3.692-8.166l0,.012a20.8,20.8,0,0,0-14.952-6.486c-10.8-.3-19.816,6.731-19.816,15.7,0,7.955,7.089,14.431,16.225,15.646h0c.123.016.248.031.372.046l.1.012.32.033.157.015.286.024.2.015.26.017.228.012.237.011.26.008.212.006.307,0h.169q.241,0,.482,0a22.633,22.633,0,0,0,7.558-1.435c1.823,1.169,5.363,2.5,9.832-.434a16.025,16.025,0,0,1-3.658-3.287c.357-.323.7-.658,1.023-1q.138-.148.272-.3.267-.3.517-.611t.482-.632a14.619,14.619,0,0,0,1.557-2.71q.234-.533.42-1.083.125-.366.228-.739a13.011,13.011,0,0,0,.448-2.683q.024-.393.024-.789C2132.481,396.87,2132.479,396.747,2132.476,396.624Z" transform="translate(-2093.961 -381.08)"/><g transform="translate(0.874)"><path class="z" d="M2108.156,395.869c0,8.971,9.016,16.063,19.816,15.847,10.462-.209,18.7-7.238,18.7-15.706s-8.243-15.557-18.7-15.843C2117.172,379.872,2108.156,386.9,2108.156,395.869Z" transform="translate(-2108.156 -380.158)"/><path class="aa" d="M2141.706,406.56a14.241,14.241,0,0,0,4.972-10.549c0-8.468-8.243-15.557-18.7-15.843-10.8-.3-19.816,6.731-19.816,15.7s9.016,16.063,19.816,15.847a22.634,22.634,0,0,0,7.558-1.435c1.823,1.169,5.363,2.5,9.833-.434A16.025,16.025,0,0,1,2141.706,406.56Z" transform="translate(-2108.157 -380.158)"/><g transform="translate(9.193 13.593)"><path class="n" d="M2531.429,604.8a2.022,2.022,0,1,0,2.026-2.1A2.073,2.073,0,0,0,2531.429,604.8Z" transform="translate(-2514.55 -602.591)"/><path class="n" d="M2257.4,602.986a2.124,2.124,0,1,0,2.131-2.152A2.151,2.151,0,0,0,2257.4,602.986Z" transform="translate(-2257.396 -600.834)"/><path class="n" d="M2396.141,603.906a2.072,2.072,0,1,0,2.077-2.125A2.111,2.111,0,0,0,2396.141,603.906Z" transform="translate(-2387.595 -601.723)"/></g><path class="ab" d="M2337.255,505.328a14.243,14.243,0,0,0,4.972-10.549,13.989,13.989,0,0,0-3.749-9.369c-1.365,3.691-3.209,5.478-4.877,6.41-4.355,2.433-8.452-.421-11.641,2.617-3.168,3.019-.8,7.388-3.143,12.1a10.757,10.757,0,0,1-2.275,3.034,23.141,23.141,0,0,0,6.98.919,22.627,22.627,0,0,0,7.558-1.435c1.823,1.169,5.363,2.5,9.833-.434A16.022,16.022,0,0,1,2337.255,505.328Z" transform="translate(-2303.706 -478.927)"/></g></g><g transform="translate(103.682 67.556)"><path class="ac" d="M2117.28,1473.88s-.84-4.385-1.679-5.692a7.418,7.418,0,0,0-2.406-2.146s-.327.537.713,1.668.173,1.243,0,1.607a2.384,2.384,0,0,0,.947,2.137c.747.467,1.027,3.01,1.027,3.01Z" transform="translate(-2113.146 -1466.042)"/><path class="ad" d="M2140.884,1577.086l2.706-.467a42.638,42.638,0,0,0,9.585,12.064c3.043,2.639,5.008,4.342,8.236,5.2,4.769,1.262,8.888-.219,9.424,1.12.262.655-.646,1.364-2.1,3.1-4.232,5.063-3.832,7.786-6.158,8.537-1.922.621-3.856-.715-7.138-3.056a33.045,33.045,0,0,1-9.89-9.89A31.569,31.569,0,0,1,2140.884,1577.086Z" transform="translate(-2139.176 -1569.808)"/><path class="ae" d="M2592.85,1883.861c.438.166,7.126,2.825,8.5,9.805.111.564,1.185,6.561-2.882,10.8-4.56,4.75-13.341,4.633-16.826.661a7.116,7.116,0,0,1-1.482-2.815h0l.918-2.44a5.979,5.979,0,0,1,3.461-1.874c2.009-.5,3.525.4,4.676-.569a3.026,3.026,0,0,0,.876-2c.385-2.347-.94-3.792-1.036-5.239-.072-1.082-.451-3.453.961-5A4.562,4.562,0,0,1,2592.85,1883.861Z" transform="translate(-2551.395 -1858.125)"/><path class="af" d="M2828.429,3138.593c.078-.43,1.466-.819,2.153-.243.341.286.576.865.379,1.126-.072.1.222.263-.059.266C2829.966,3139.753,2828.351,3139.02,2828.429,3138.593Z" transform="translate(-2784.368 -3035.07)"/><path class="ag" d="M2842.494,3095.427l1.427-.2c-.661-.8-.538-3.331-.538-3.331l-1.518.339s.173.7.467,1.722A6.743,6.743,0,0,1,2842.494,3095.427Z" transform="translate(-2796.979 -2991.748)"/><path class="ah" d="M2849.653,3143.446s1.718-.4,1.9-.055.33,1.253-.76,1.224S2849.556,3143.735,2849.653,3143.446Z" transform="translate(-2804.264 -3039.943)"/><path class="ai" d="M2510.437,3167.133c.137-.414,1.566-.6,2.166.061.3.331.449.937.218,1.168-.084.084.183.291-.1.255C2511.8,3168.5,2510.3,3167.545,2510.437,3167.133Z" transform="translate(-2485.957 -3062)"/><path class="aj" d="M2530.912,3127.289h1.441c-.543-.881-.067-3.374-.067-3.374l-1.55.123s.074.713.221,1.771A6.75,6.75,0,0,1,2530.912,3127.289Z" transform="translate(-2505.014 -3021.797)"/><path class="ak" d="M2431.7,2276.009a66.674,66.674,0,0,0-2.235,10.228c-1.75,12.735,1.97,13.141,1.275,27.252-.222,4.5,3.9,14.891,4.266,15.121a4.479,4.479,0,0,0,.571.022,5.687,5.687,0,0,0,1.452-.242c.653-.113,3.009-6.492,2.463-10.286-.386-2.685-.275-5.566-.051-11.328.036-.934,2.425-18.166,2.425-18.166h0c.727,6.379,1.562,11.8,2.287,16,2.328,13.5,9.9,21.671,10.291,21.8a1.6,1.6,0,0,0,1.369-.094.942.942,0,0,0,.346-.39c.2-.159-.06-13.478-2.368-23.5-3.35-14.55-1.891-17.954-2.953-24.453C2449.917,2272.35,2431.7,2276.009,2431.7,2276.009Z" transform="translate(-2409.534 -2225.02)"/><path class="al" d="M2462.559,1862.9c-2.225-.065-7.338-.851-10.154,1.684-.049.044.528.352.244.685a18.434,18.434,0,0,0-1.988,2.853,19.164,19.164,0,0,0-1.671,4.134,35.517,35.517,0,0,0-1.319,7.212c-.515,6.771,0,9.894.459,12.019a23.432,23.432,0,0,0,13.369,1.963,20.865,20.865,0,0,0,6.665-2.2c-1.6-4.852-.345-7.448.248-9.841.846-3.412.859-3.154,1.556-5.865,1.149-4.472,1.338-9.042.548-9.977C2468.386,1863.051,2464.55,1862.96,2462.559,1862.9Z" transform="translate(-2426.862 -1838.301)"/><path class="am" d="M2531.087,3175.1s1.757-.151,1.893.212.151,1.287-.924,1.105S2530.951,3175.368,2531.087,3175.1Z" transform="translate(-2505.29 -3069.795)"/><g transform="translate(28.234 11.578)"><path class="an" d="M2574.306,1728.427a3.867,3.867,0,0,1,.414-2.77c.59-1.089.741-1.238,1.023-1.426l.392-.241.046-.018a4.53,4.53,0,0,1,1.281-.078c.554.118,1.144,2.375.976,5.567.023.121.045.244.066.368.087.5.156,1,.21,1.481a1.236,1.236,0,0,0,.793,1.02c2.944,1.111,2.938.224,3.243,1.18.166.521-3.177,1.362-4.823,1.172-3.7.027-6.711-.367-6.387-.949.143-.259,3.011-1.008,3.817-1.751a2.465,2.465,0,0,0,.739-1.885C2575.873,1729.98,2574.575,1729.387,2574.306,1728.427Z" transform="translate(-2571.517 -1719.574)"/><path class="ao" d="M2627.849,1657.522a3.714,3.714,0,0,0,.707,2.214,1.645,1.645,0,0,1,.358.391.5.5,0,0,1,.056.117c.216.623-.774,1.356-.583,1.635.138.2.812-.068.892.107s-.484.5-.4.7c.065.149.409.013.626.24.108.113.077.2.191.55a3.182,3.182,0,0,0,.226.53c.342.58,1.31.792,1.5.56.052-.065.007-.119.06-.336a1.728,1.728,0,0,1,.189-.434,4.49,4.49,0,0,1,1.171-.922,3.2,3.2,0,0,0,1.222-1.392c.026-.067.042-.117.054-.153a3.674,3.674,0,0,0-.092-2.457c-.549-1.1-1.786-.579-2.8-1.672-1.169-1.26-.473-2.984-1.107-3.174C2629.417,1653.819,2627.843,1655.693,2627.849,1657.522Z" transform="translate(-2624.379 -1654.012)"/><path class="ap" d="M2636.777,1775.823c.242-.333.668-.02.671.411s-.415.879-.82.794S2636.451,1776.271,2636.777,1775.823Z" transform="translate(-2632.414 -1768.189)"/></g><path class="aq" d="M2770.083,2089.3a.061.061,0,0,1-.061-.055,13.547,13.547,0,0,1,.664-5.652c.106-.373.207-.725.294-1.077.48-1.938.69-2.687.914-3.48.145-.515.294-1.047.526-1.937a.062.062,0,1,1,.12.031c-.232.891-.382,1.424-.527,1.939-.222.792-.433,1.54-.913,3.476-.088.354-.189.707-.3,1.081a13.439,13.439,0,0,0-.66,5.6.062.062,0,0,1-.055.068Z" transform="translate(-2729.491 -2039.418)"/><path class="ao" d="M2608.264,1766.25l-.562.731s-.606.9-.96.405c-.289-.4-.364-.392-.382-.375s0,.008-.005.008.043-.2.085-.374a3.285,3.285,0,0,0-.48,1.032,1.825,1.825,0,0,0,.006,1.412,1.4,1.4,0,0,0,.826.646,3.7,3.7,0,0,0,1.086-.107s-.96-.7-.975-.862c-.04-.45.584-.693,1.048-1.615A3.7,3.7,0,0,0,2608.264,1766.25Z" transform="translate(-2575.47 -1747.758)"/></g></g></g></svg>